{"title":"Fast.and.Furious.7.2015.HD-TS.XVID.AC3.HQ.Hive-CM8","uid":11825376,"size":1892440064,"categoryP":"video","categoryS":"movies","magnet":"?xt=urn:btih:4c4f760b2d8853799ea027b902dff05d9c3abbab&amp;dn=+Fast.and.Furious.7.2015.HD-TS.XVID.AC3.HQ.Hive-CM8&amp;tr=udp%3A%2F%2Ftracker.openbittorrent.com%3A80&amp;tr=udp%3A%2F%2Fopen.demonii.com%3A1337&amp;tr=udp%3A%2F%2Ftracker.coppersurfer.tk%3A6969&amp;tr=udp%3A%2F%2Fexodus.desync.com%3A6969","seeders":17,"leechers":0,"uploader":"makintos13","files":1,"time":1429470171,"description":"Fast.and.Furious.7.2015.HD-TS.XVID.AC3.HQ.Hive-CM8\n\nscreens:\n &lt;a href=&quot;\nhttp://imgmak.com/7E&quot; rel=&quot;nofollow&quot; target=&quot;_NEW&quot;&gt;\nhttp://imgmak.com/7E&lt;/a&gt;\n &lt;a href=&quot;\nhttp://imgmak.com/7h&quot; rel=&quot;nofollow&quot; target=&quot;_NEW&quot;&gt;\nhttp://imgmak.com/7h&lt;/a&gt;\n &lt;a href=&quot;\nhttp://imgmak.com/7l&quot; rel=&quot;nofollow&quot; target=&quot;_NEW&quot;&gt;\nhttp://imgmak.com/7l&lt;/a&gt;\n\n\n &lt;a href=&quot;\nhttp://www.imdb.com/title/tt2820852/&quot; rel=&quot;nofollow&quot; target=&quot;_NEW&quot;&gt;\nhttp://www.imdb.com/title/tt2820852/&lt;/a&gt;\n\n\nDeckard Shaw seeks revenge against Dominic Toretto and his family for the death of his brother.\n\nDirector: James Wan\nWriters: Chris Morgan, Gary Scott Thompson (characters)\nStars: Vin Diesel, Paul Walker, Dwayne Johnson\nGenres: Action | Crime | Thriller\nCountry: Japan | USA\nLanguage: English\n\n\nThx Hive\n\nCM8 Doing It Right The First Time\n\n\nSources:\nVideo: HDCAM Italian-Free (great video)\nAudio: Sweeeet Line f1fs24 JiiNX (thx m8, a real quality line)\nthx\n\nNotes:\nI had that amazing Italien Video on Day 0 , but i wouldnt bother you with any of the 3cam audios that have been out, they werent worth my while\nThis Movie deserves the best line, which i finally got, and now the Movie is perfect.\n\nEncode:\nRemoved the flicker in the Video, made it slightly brighter and sharper, fixed colouring and added saturation.\ntook the line, ran it through my cleaning filters and finally synced it to my video, yes all is lipsync as usual.\n\nIt wont get better than that, will do me till retail\nenjoy\n\nGeneral\nComplete name : Fast.and.Furious.7.2015.HD-TS.XVID.AC3.HQ.Hive-CM8.avi\nFormat : AVI\nFormat/Info : Audio Video Interleave\nFile size : 1.76 GiB\nDuration : 2h 8mn\nOverall bit rate : 1 970 Kbps\nWriting application : Nandub v1.0rc2\nWriting library : Nandub build 1853/release\n\nVideo\nID : 0\nFormat : MPEG-4 Visual\nFormat profile : Advanced Simple@L5\nFormat settings, BVOP : 2\nFormat settings, QPel : Yes\nFormat settings, GMC : No warppoints\nFormat settings, Matrix : Default (H.263)\nMuxing mode : Packed bitstream\nCodec ID : XVID\nCodec ID/Hint : XviD\nDuration : 2h 8mn\nBit rate : 1 704 Kbps\nWidth : 720 pixels\nHeight : 336 pixels\nDisplay aspect ratio : 2.143\nFrame rate : 25.000 fps\nColor space : YUV\nChroma subsampling : 4:2:0\nBit depth : 8 bits\nScan type : Progressive\nCompression mode : Lossy\nBits/(Pixel*Frame) : 0.282\nStream size : 1.52 GiB (87%)\nWriting library : XviD 1.2.1 (UTC 2008-12-04)\n\nAudio\nID : 1\nFormat : AC-3\nFormat/Info : Audio Coding 3\nMode extension : CM (complete main)\nFormat settings, Endianness : Big\nCodec ID : 2000\nDuration : 2h 8mn\nBit rate mode : Constant\nBit rate : 256 Kbps\nChannel(s) : 2 channels\nChannel positions : Front: L R\nSampling rate : 48.0 KHz\nBit depth : 16 bits\nCompression mode : Lossy\nStream size : 234 MiB (13%)\nAlignment : Split accross interleaves\nInterleave, duration : 40 ms (1.00 video frame)\nInterleave, preload duration : 500 ms","torrent":{"xt":"urn:btih:4c4f760b2d8853799ea027b902dff05d9c3abbab","amp;dn":"+Fast.and.Furious.7.2015.HD-TS.XVID.AC3.HQ.Hive-CM8","amp;tr":["udp%3A%2F%2Ftracker.openbittorrent.com%3A80","udp%3A%2F%2Fopen.demonii.com%3A1337","udp%3A%2F%2Ftracker.coppersurfer.tk%3A6969","udp%3A%2F%2Fexodus.desync.com%3A6969"],"infoHash":"4c4f760b2d8853799ea027b902dff05d9c3abbab","infoHashBuffer":{"type":"Buffer","data":[76,79,118,11,45,136,83,121,158,160,39,185,2,223,240,93,156,58,187,171]},"announce":[],"urlList":[]}}